<?xml version="1.0" encoding="utf-8"?>
<!-- Generator: Adobe Illustrator 19.0.0, SVG Export Plug-In . SVG Version: 6.00 Build 0)  -->
<svg version="1.1" id="Layer_1" xmlns="http://www.w3.org/2000/svg" xmlns:xlink="http://www.w3.org/1999/xlink" x="0px" y="0px"
	 viewBox="0 0 287 50" style="enable-background:new 0 0 287 50;" width="300" height="52" xml:space="preserve">
<style type="text/css">
	.st0{fill:#000;}
</style>
<g>
	<g>
		<g>
			<g>
				<g>
					<path class="st0" d="M53.4,19.2c-0.2,0-0.6,0.2-0.9,0.2c0.5-0.5,0.8-1.1,0.8-1.6c-0.2,0.1-0.7,0.2-1.1,0.3
						c0.8-0.7,1.3-1.5,1.1-2.5c-0.2,0.1-0.6,0.3-0.9,0.5c0.7-1.1,0.7-2,0.4-2.6c-0.3,0.3-0.7,0.6-1.1,0.9c0.3-1.3,0.2-2.1-0.3-2.6
						c-0.5,1-1,1.8-1.8,2.7c0.1-0.8,0-1.9-0.6-2.4c0,0-0.2,1.2-0.6,1.5c-0.1-1.1-0.4-1.8-1-2.4c0,0,0,1.2-0.4,1.9
						c-0.3-1-0.8-1.8-1.4-2.5c0,2.2-0.6,6.3-2.3,9.1c-0.2,1.6-0.4,4.1-3.1,5.6c-0.4-0.3-1.1-0.6-2-0.6c-0.3-1.2,1.4-2.4,2.8-3.3
						c1.4-0.9,2-1.7,2-2.9c0-1.3-0.9-1.9-1.9-1.9c-1.3-0.1-2.4,1.1-2.6,1.6c-0.4,0.2-1.5,0.5-2,0.7c-0.5,0.1-1.1,0.3-1.4,0.7
						c0.2,0.1,0.8,0.2,1.1,0.1c0.4-0.1,1.9-0.3,3.2-0.5c0.5,0.3,1.3,0.7,0.4,1.3c-1.2,0.7-1.7,0.9-3.3,1.8c-2.6,1.3-1.7,4.7-1.1,5
						c0,1.1,1,3.2,1.7,3.9c0.3,1.4-0.1,3.6-0.5,4.5c-0.4-0.9-1-2.9-1.4-4.1c0.4-2.2-0.3-3.2-0.7-3.6c-0.5-0.4-1.2-0.3-1.7,0.5
						c0.7-0.1,1,0.9,1,1.9c0,1.2-0.3,2.1-1.1,2.1c0.1,1,1.2,1.3,1.7,0.8c0.1,0.2,0.5,1.6,0.9,2.7c0.2,0.7,0.5,1.3,0.6,1.7
						c0.2,0.4,1.4,0.4,1.6,0c0.2-0.6,0.4-1,0.7-1.7l0,0c0.2-0.5,0.6-1.2,1.1-2.1c0.3,0.6,0.8,1.5,1,2.1c0.1,0.3,0.2,0.5,0.2,0.6
						c0.1,1,0,4.4-0.2,6.4c-2.8-0.8-3.6,0.6-3.4,1.6c0.4-0.4,0.9-0.4,1.3-0.2c-0.1,0.8,0.1,1.3,0.9,1.5c0.8-2.1,3.7-1.7,4-1.5
						c0-0.4,0.4-1.4-1.1-1.7c0.1-1.8,0.2-4.1,0.3-4.6c0.1-0.5,0.1-0.8-0.1-1.5c-0.1-0.2-0.1-0.5-0.2-0.8l0,0
						c-0.2-0.7-0.4-1.7-0.4-2.8c0.3,0.3,0.9,0.5,1.3,0.4c0.3,1.4,0.8,1,1,1.6c0.1,0.3,0.2,0.6,0.2,0.8c0,0.2,0.1,0.5,0.2,0.6
						c1,0,1.8-0.2,2.5-0.6c0.2-0.1,0.4-0.3,0.5-0.4c-0.2-1.5-0.7-2.2-1.4-3.1c-0.2-1.2-0.8-2.3-1.5-3.3c1-0.3,2-1.1,2.5-1.7
						c0.5,0,1-0.4,1.1-1.2c0.3,0,0.5,0,0.7-0.1c0-0.2-0.1-0.5-0.1-0.7c0.4,0,0.7,0,1,0c-0.1-0.3-0.2-0.6-0.3-0.8c0.4,0,0.8,0,1.2,0
						c-0.2-0.4-0.3-0.7-0.4-1c0.4,0,1.1-0.1,1.6-0.3c-0.2-0.2-0.4-0.4-0.6-0.6c1.4-0.4,2-1.4,2-1.8c-0.2,0-0.6,0.1-0.9,0.1
						C52.8,20.5,53.3,19.8,53.4,19.2z"/>
				</g>
			</g>
			<g>
				<path class="st0" d="M34.2,22.2h-8.5h-8.5h-0.3v0.3v6.1c0.1,0,0.2,0.1,0.2,0.2v-6.3h17.2v5.9c0.1,0.1,0.1,0.1,0.2,0.2v-6.1v-0.3
					H34.2z"/>
				<path class="st0" d="M25.7,44.3c-7.6-2.8-8.6-9.1-8.6-12c0,0,0,0,0,0c0-0.1,0-0.1,0-0.2c0-0.6,0-1,0.1-1.2c0-0.4-0.1-0.7-0.1-1
					c0,0-0.1-0.1-0.1-0.1v2.9c0,3.3,1.2,6.2,3.6,8.5c2.1,2,4.4,3,5.1,3.2l0.1,0l0.1,0c0.7-0.2,3-1.2,5.1-3.2
					c2.4-2.3,3.6-5.2,3.6-8.5v-0.5c-0.1,0.1-0.1,0.2-0.2,0.2C34.3,34,34,36.3,33,38C31.8,40.4,30,42.4,25.7,44.3z"/>
			</g>
			<path class="st0" d="M22.6,16.6c-1.2,0.1-2.4,1.6-1.9,3.4c-0.2,0.1-0.7,0.1-0.9-0.3c-0.1,0.6-1.3,1.2-2.1,1.1
				c0.5-0.5,0.8-1.7,1.7-2.3c0.9-0.6,1.3-1,1.7-2.1c-0.4,0.2-2.7,0.8-3.3,0.1c1.5-0.2,3.2-1,4-1.6l-0.3-0.4
				c-0.9,0.5-2.1,0.9-2.8,1.1c-0.2-1.8,1.5-1.8,1.7-1.3c0.7-0.9,0.2-2.1-0.3-2.2c0.5-1.5,0-2.4-0.5-2.9c-0.1,1.6-1.8,1.8-2,3
				c-0.1-0.9-0.1-3.5-0.2-4.7c-0.1-2.3-3.1-3.1-3.5-3.1c-1.9,0.1-2.1-0.2-2-1c-1,1.1-0.6,2.1,0.2,2.6c-0.1,0.7-1.2,1.2-1.8,1.3
				c1.6,1.4,3.4,0.6,4.2-0.2C14.5,7.1,14.6,7,14.6,7c0.3,0.5,0.5,1.5,0.5,2.1c-1.4-0.1-1.7,1-1.7,1.4c1.8-0.8,2,2.8,2.5,3.3
				c-0.5,0-1.3-1.1-2.5-1.2c-1.5-0.1-2,0.7-2.6,0.7c0.1,1,1.4,1.6,2.2,1.8c-0.4,1.1,0,1.8,0.8,2.1c0-1,1.2-1.3,2.6-0.5
				c1.6,0.9,2.4,1,3.7,0.6c-0.2,0.5-0.8,0.5-1.5,1.2c-1,1-1,2.2-2.1,2.7c1.3,0.6,3.3-0.2,3.5-0.7c0.5,0.3,1.2,0.1,1.4-0.2
				c-0.9-1.9,0.6-3.1,1.2-3.1C22.7,17.1,22.9,16.6,22.6,16.6L22.6,16.6z M15.9,15.8c-0.7-0.3-1.7-0.4-2.2,0.4
				c-0.3-0.5,0.1-1.3,0.4-1.6c-1.4,0-2.2-0.4-2.5-0.8c0.5-0.3,1.9-0.8,3,0c0.8,0.6,1.1,0.8,2,1.1c0.3-0.3,0.2-0.2,0.3-0.3
				c-0.7-0.5-1.1-4.4-2.5-4.5c0.2-0.5,0.9-0.4,1.5-0.3c0-0.9-0.3-2.3-0.9-3.1c0.8-0.4,1.4,0,1.7,1.1c0.3,1.1-0.1,3.8,0.7,6.3
				l0.4-0.4c-0.2-1.4,1.4-2,1.7-2.7c0.1,1-0.1,1.4-0.3,1.8c0.6,0.1,0.8,0.6,0.7,1c-1.4-0.2-2.2,1.2-1.9,2.3
				C17.1,16.2,16.4,16,15.9,15.8L15.9,15.8z M12,5c1.1,0.5,1.4-0.4,3.5,0.9c-1.3,0.4-2.4,2.1-3.9,1.7c1.1-0.5,1-1.3,1.6-1.7
				C12.7,5.7,12,5.5,12,5L12,5z"/>
			<path class="st0" d="M36.8,11.2c0-2.2-0.1-3.9-0.1-4.5c0.1,0,0.2,0.1,0.3,0.1c1.6,0.5,1.9,2.4,5.1,0.3c-1.7,0.2-1.8-1.3-2.6-1.3
				c1.2-0.7,1.3-2.2,1.3-2.2c-1,0.8-3.3,0.9-3.8,1.1c-0.6,0.4-1.4,0.8-1.9,1.1c-1.3,0.7-0.4,4.7-0.5,6.1c-0.7-2.2-2.2-1.8-2.9-3.1
				c-0.6,1,0,2.8,0.3,3.3c-0.8,0.7-0.6,1.9-0.4,2.3c0.7-0.5,1.8-0.4,2.1,0.5c-0.9,0.6-2.5,0.7-3.6-0.4l-0.4,0.4c0.8,1,2.6,1.4,4,0.6
				c0,0.2-0.1,0.5-0.1,0.8c-0.7,0.4-1.7,0.6-2.7,0.2c0.1,1.1,1.4,1.9,2.6,2.2c-0.4,0.3-0.9,0.4-1.3,0.4c0.2,0.6,0.3,1.5-0.1,2.1
				c-0.6-0.4-0.9-0.8-1.1-2.3c-0.2-1.5-1.3-3.1-2.2-3.4c0,0.5,0,0.3,0,0.7c2.3,1.7,1,4.7,3.3,5.7c0.9-1,0.9-1.3,0.7-2.3
				c0.9-0.2,1.5-0.9,1.7-1.5c-0.8,0.4-2.1-0.3-2.4-0.8c1.4,0,2.7-1.1,4-2.5c1.2-1.2,2.8-1.1,2.7-0.1c0.8-0.1,1.1-1.2,0.9-2
				c1.2-0.4,2.1-1.3,2.3-2.7C40.4,10.9,38.3,9.6,36.8,11.2L36.8,11.2z M38.7,12.4c0.6,0.5,0.4,1.3,0.3,1.4c-0.6-1-2.4-0.6-4.1,1.4
				c-0.1,0.1-0.3,0.3-0.5,0.5c0.1-2.4-1.8-2.4-2.4-2.2c0.1-0.7,0.5-1.2,0.7-1.2c-0.6-0.7-0.7-1.5-0.8-2.1c1,0.4,2.4,1.5,2.6,3.5
				l0.6-0.4C35,9.9,35,9.9,35,7.6c0-0.3,0-1.1,1-1c0,0.8,0.2,3.1,0.1,6.2h0.4c0.3-0.9,1.5-1.9,2.8-1.8c0.9,0.1,1.2,0,1.8-0.2
				C40.7,11.9,39.1,12.4,38.7,12.4L38.7,12.4z M36.1,6c0.7-0.5,1.1-0.7,1.4-0.9c0.6,0,1.5,0,2.1-0.3c-0.6,0.7-0.7,1-1.7,1.1
				c1.3,0.1,1.8,1.3,2.5,1.4C38.3,8,38,5.9,36.1,6L36.1,6z"/>
			<path class="st0" d="M28,18.6c-0.1,0-0.2,0.1-0.3,0.1c-0.1,0-0.3,0-0.4-0.1l0-0.7c0.1-0.1,0.2-0.2,0.2-0.3c0-0.2-0.2-0.3-0.3-0.3
				c-0.2,0-0.3,0.2-0.3,0.3c0,0.1,0.1,0.2,0.2,0.3l0,0.7c-0.1,0-0.2,0-0.4,0c-0.1-0.1-0.2-0.2-0.3-0.2c-0.2,0-0.3,0.2-0.3,0.3
				c0,0.2,0.2,0.3,0.3,0.3c0.1,0,0.2-0.1,0.3-0.2c0.1,0,0.3,0,0.4,0l0,1c-0.1,0.1-0.2,0.2-0.2,0.3c0,0.2,0.2,0.4,0.3,0.4
				c0.2,0,0.4-0.2,0.4-0.4c0-0.1-0.1-0.3-0.2-0.3l0-1c0.1,0,0.2,0,0.3,0.1c0,0.1,0.2,0.2,0.3,0.2c0.2,0,0.3-0.2,0.3-0.3
				C28.4,18.8,28.2,18.6,28,18.6L28,18.6z"/>
			<path class="st0" d="M25,18.4c-0.1,0-0.3,0.1-0.3,0.2c-0.1,0-0.2,0-0.4,0l0-0.7c0.1-0.1,0.2-0.2,0.2-0.3c0-0.2-0.2-0.3-0.3-0.3
				c-0.2,0-0.4,0.2-0.4,0.3c0,0.1,0.1,0.3,0.2,0.3l0,0.7c-0.1,0-0.3,0-0.4,0.1c-0.1-0.1-0.2-0.1-0.3-0.1c-0.2,0-0.3,0.2-0.3,0.3
				c0,0.2,0.2,0.3,0.3,0.3c0.2,0,0.3-0.1,0.3-0.2c0.1,0,0.2,0,0.3-0.1l0,1c-0.1,0.1-0.2,0.2-0.2,0.3c0,0.2,0.2,0.4,0.3,0.4
				c0.2,0,0.3-0.2,0.3-0.4c0-0.1-0.1-0.2-0.2-0.3l0-1c0.1,0,0.3,0,0.4,0c0.1,0.1,0.2,0.2,0.3,0.2c0.2,0,0.3-0.2,0.3-0.3
				C25.4,18.6,25.2,18.4,25,18.4L25,18.4z"/>
			<path class="st0" d="M29.6,21.4c-0.2-1.4-0.7-5.3-0.8-6.6l-0.6,0c0,0.2,0,0.5,0.1,0.9c-0.7-0.2-1.7-0.4-2.6-0.4
				c-1,0-1.9,0.1-2.6,0.4c0-0.3,0.1-0.6,0.1-0.9l-0.6,0c-0.1,1.3-0.6,5.2-0.8,6.6c-0.4,0.1-0.6,0.5-0.6,1.1c0,0,3.3,0,4.5,0
				c1.3,0,4.5,0,4.5,0C30.2,21.9,30,21.6,29.6,21.4L29.6,21.4z M25.7,21.4c-0.5,1-1.5,1-2.3,0.4c-0.3-0.2-0.7-0.4-1-0.4
				c0.1-1,0.4-2.8,0.6-4.4c1.1-0.5,2.4-0.6,2.8,0.6c0.3-1.3,1.7-1.1,2.8-0.6c0.2,1.6,0.4,3.4,0.6,4.4c-0.3,0.1-0.7,0.2-1,0.4
				C27.2,22.3,26.2,22.4,25.7,21.4L25.7,21.4z"/>
			<path class="st0" d="M44,46.2c-0.4,0.1-0.8,0.2-1.5,0.2h-0.9c-2.9-0.1-5.9-0.9-7.8-2.8c2.5-2.6-0.4-4.7-2.1-2.5
				c-0.5,0.7-0.9,1.2-1.3,1.8c-0.3,0.5-0.1,1.1,0.6,1.9c0.3,0.5,1.2,1.1,1.9,1.6H18.4c0.7-0.5,1.6-1.2,1.9-1.6
				c0.6-0.8,0.8-1.4,0.6-1.9c-0.3-0.7-0.8-1.1-1.3-1.8C18,38.9,15,41,17.5,43.5c-1.8,1.9-4.8,2.8-7.8,2.8H9c-0.7,0-1.1-0.1-1.5-0.2
				C6.8,46,6.7,46.3,7,47.3C7.3,48,7.4,49.2,7.5,50h36.4c0.1-0.8,0.3-1.9,0.5-2.6C44.7,46.3,44.6,46,44,46.2L44,46.2z M32.6,41.1
				c0.5-0.6,1.2-0.5,1.5,0.1c0.3,0.6-0.1,1.3-0.7,1.8C32.5,42.1,32.4,41.4,32.6,41.1L32.6,41.1z M31.4,44.1
				c-0.3-0.4-0.4-0.7-0.2-1.1c0.1-0.4,0.5-0.7,0.8-1.2c0.5,2,3.5,3.9,5.7,4.5h-3.5C33.2,45.9,32.1,45.1,31.4,44.1L31.4,44.1z
				 M17.3,41.2c0.3-0.5,1-0.7,1.5-0.1c0.2,0.3,0.1,1-0.7,1.9C17.5,42.5,17,41.8,17.3,41.2L17.3,41.2z M19.5,41.9
				c0.3,0.5,0.6,0.8,0.8,1.2c0.2,0.4,0.1,0.6-0.2,1.1c-0.7,0.9-1.8,1.7-2.7,2.2h-3.5C16,45.7,19,43.8,19.5,41.9L19.5,41.9z
				 M43.3,49.4H8.1c-0.2-1.1-0.4-1.8-0.6-2.4h36.3C43.7,47.5,43.5,48.3,43.3,49.4L43.3,49.4z"/>
			<path class="st0" d="M12.9,48.6C12.9,48.6,12.9,48.6,12.9,48.6l0.1,0.3c0,0,0,0,0,0.1c0,0,0,0,0,0c0,0,0,0,0.1,0
				c0.2,0,0.3,0,0.4,0c0.1,0,0.1,0,0.1,0c0,0,0,0,0,0c0,0-0.1,0-0.1,0c0,0-0.1,0-0.2-0.2c-0.1-0.3-0.5-1.2-0.5-1.3
				c0,0,0-0.1-0.1-0.1c0,0,0,0-0.1,0.1l-0.5,1.3c0,0.1-0.1,0.2-0.2,0.2c0,0,0,0-0.1,0c0,0,0,0,0,0c0,0,0,0,0,0c0.1,0,0.2,0,0.2,0
				c0.1,0,0.2,0,0.2,0c0,0,0,0,0,0c0,0,0,0,0,0h0c-0.1,0-0.1,0-0.1-0.1c0,0,0-0.1,0-0.1l0-0.1c0,0,0,0,0,0H12.9L12.9,48.6z
				 M12.3,48.5C12.3,48.5,12.3,48.5,12.3,48.5l0.3-0.7c0,0,0,0,0,0c0,0,0,0,0,0l0.3,0.7c0,0,0,0,0,0H12.3L12.3,48.5z"/>
			<path class="st0" d="M13.9,48.3c0,0.3,0.1,0.5,0.2,0.6c0.2,0.1,0.4,0.1,0.5,0.1c0.1,0,0.3,0,0.4-0.1c0.2-0.1,0.2-0.4,0.2-0.6V48
				c0-0.3,0-0.4,0-0.4c0-0.1,0-0.1,0.1-0.1c0,0,0,0,0.1,0c0,0,0,0,0,0c0,0,0,0,0,0c-0.1,0-0.2,0-0.2,0c0,0-0.1,0-0.2,0c0,0,0,0,0,0
				c0,0,0,0,0,0c0,0,0.1,0,0.1,0c0.1,0,0.1,0,0.1,0.1c0,0.1,0,0.1,0,0.4v0.3c0,0.2,0,0.4-0.1,0.5c-0.1,0.1-0.2,0.1-0.3,0.1
				c-0.1,0-0.2,0-0.3-0.1c-0.1-0.1-0.2-0.2-0.2-0.5V48c0-0.3,0-0.4,0-0.4c0-0.1,0-0.1,0.1-0.1c0,0,0,0,0.1,0c0,0,0,0,0,0
				c0,0,0,0,0,0c-0.1,0-0.2,0-0.3,0c-0.1,0-0.2,0-0.3,0c0,0,0,0,0,0c0,0,0,0,0,0c0,0,0.1,0,0.1,0c0.1,0,0.1,0,0.1,0.1
				c0,0.1,0,0.1,0,0.4V48.3L13.9,48.3z"/>
			<path class="st0" d="M16.1,48.3c0,0.2,0,0.4,0,0.4c0,0.1,0,0.1-0.1,0.1c0,0,0,0-0.1,0c0,0,0,0,0,0c0,0,0,0,0,0c0.1,0,0.2,0,0.3,0
				c0.1,0,0.3,0,0.4,0c0.4,0,0.6-0.1,0.7-0.2c0.1-0.1,0.2-0.3,0.2-0.6c0-0.2-0.1-0.4-0.2-0.5c-0.2-0.2-0.6-0.2-0.8-0.2
				c-0.1,0-0.3,0-0.3,0c-0.1,0-0.2,0-0.3,0c0,0,0,0,0,0c0,0,0,0,0,0c0,0,0.1,0,0.1,0c0.1,0,0.1,0,0.1,0.1c0,0.1,0,0.1,0,0.4V48.3
				L16.1,48.3z M16.4,47.9c0-0.2,0-0.3,0-0.4c0,0,0,0,0,0c0,0,0.1,0,0.1,0c0.2,0,0.4,0,0.6,0.2c0.1,0.1,0.2,0.3,0.2,0.5
				c0,0.2,0,0.4-0.2,0.5c-0.1,0.1-0.3,0.1-0.5,0.1c-0.2,0-0.2,0-0.3-0.1c0,0,0-0.1,0-0.2c0,0,0-0.2,0-0.4V47.9L16.4,47.9z"/>
			<path class="st0" d="M19,48.6C19,48.6,19,48.6,19,48.6l0.1,0.3c0,0,0,0,0,0.1c0,0,0,0,0,0c0,0,0,0,0.1,0c0.2,0,0.3,0,0.4,0
				c0.1,0,0.1,0,0.1,0c0,0,0,0,0,0c0,0-0.1,0-0.1,0c0,0-0.1,0-0.2-0.2c-0.1-0.3-0.5-1.2-0.5-1.3c0,0,0-0.1-0.1-0.1c0,0,0,0-0.1,0.1
				l-0.5,1.3c0,0.1-0.1,0.2-0.2,0.2c0,0,0,0-0.1,0c0,0,0,0,0,0c0,0,0,0,0,0c0.1,0,0.2,0,0.2,0c0.1,0,0.2,0,0.2,0c0,0,0,0,0,0
				c0,0,0,0,0,0h0c-0.1,0-0.1,0-0.1-0.1c0,0,0-0.1,0-0.1l0-0.1c0,0,0,0,0,0H19L19,48.6z M18.4,48.5C18.4,48.5,18.4,48.5,18.4,48.5
				l0.3-0.7c0,0,0,0,0,0c0,0,0,0,0,0l0.3,0.7c0,0,0,0,0,0H18.4L18.4,48.5z"/>
			<path class="st0" d="M21,47.6c0.1-0.1,0.1-0.2,0.2-0.2c0,0,0.1,0,0.1,0c0,0,0,0,0,0c0,0,0,0,0,0c-0.1,0-0.2,0-0.2,0
				c0,0-0.1,0-0.2,0c0,0,0,0,0,0c0,0,0,0,0,0c0,0,0,0,0.1,0c0,0,0,0,0,0c0,0,0,0.1,0,0.1c0,0.1-0.2,0.3-0.3,0.4
				c-0.1-0.1-0.2-0.3-0.3-0.5c0,0,0,0,0-0.1c0,0,0,0,0,0c0,0,0,0,0.1,0c0,0,0,0,0,0c0,0,0,0,0,0c-0.1,0-0.2,0-0.2,0
				c-0.1,0-0.3,0-0.3,0c0,0,0,0,0,0c0,0,0,0,0,0c0,0,0.1,0,0.1,0c0.1,0,0.1,0.1,0.2,0.2l0.4,0.6L20,48.7c-0.1,0.1-0.1,0.1-0.2,0.2
				c0,0-0.1,0-0.1,0c0,0,0,0,0,0c0,0,0,0,0,0h0c0,0,0.1,0,0.2,0c0.1,0,0.2,0,0.2,0h0c0,0,0,0,0,0c0,0,0,0,0,0c0,0,0,0,0,0
				c0,0,0,0,0,0c0,0,0-0.1,0-0.1l0.3-0.5c0.1,0.2,0.2,0.4,0.3,0.6c0,0,0,0,0,0.1c0,0,0,0,0,0c0,0,0,0,0.1,0c0.2,0,0.3,0,0.4,0h0.1
				c0,0,0,0,0,0c0,0,0,0,0,0c0,0,0,0-0.1,0c-0.1,0-0.1,0-0.1-0.1c0-0.1-0.4-0.6-0.5-0.7L21,47.6L21,47.6z"/>
			<path class="st0" d="M24.4,48.6C24.4,48.6,24.4,48.6,24.4,48.6l0.1,0.3c0,0,0,0,0,0.1c0,0,0,0,0,0c0,0,0,0,0.1,0
				c0.2,0,0.3,0,0.4,0c0.1,0,0.1,0,0.1,0c0,0,0,0,0,0c0,0-0.1,0-0.1,0c0,0-0.1,0-0.2-0.2c-0.1-0.3-0.5-1.2-0.5-1.3
				c0,0,0-0.1-0.1-0.1c0,0,0,0-0.1,0.1l-0.5,1.3c0,0.1-0.1,0.2-0.2,0.2c0,0,0,0-0.1,0c0,0,0,0,0,0c0,0,0,0,0,0c0.1,0,0.2,0,0.2,0
				c0.1,0,0.2,0,0.2,0c0,0,0,0,0,0c0,0,0,0,0,0h0c-0.1,0-0.1,0-0.1-0.1c0,0,0-0.1,0-0.1l0-0.1c0,0,0,0,0,0H24.4L24.4,48.6z
				 M23.8,48.5C23.8,48.5,23.8,48.5,23.8,48.5l0.2-0.7c0,0,0,0,0,0c0,0,0,0,0,0l0.3,0.7c0,0,0,0,0,0H23.8L23.8,48.5z"/>
			<path class="st0" d="M25.7,48.3c0,0.2,0,0.4,0,0.4c0,0.1,0,0.1-0.1,0.1c0,0,0,0-0.1,0c0,0,0,0,0,0c0,0,0,0,0,0c0.1,0,0.2,0,0.3,0
				c0.1,0,0.2,0,0.3,0c0,0,0,0,0,0c0,0,0,0,0,0c0,0-0.1,0-0.1,0c-0.1,0-0.1-0.1-0.1-0.1c0-0.1,0-0.3,0-0.4v-0.9l0.3,0
				c0.2,0,0.2,0.1,0.2,0.1v0c0,0,0,0,0,0c0,0,0,0,0,0c0-0.1,0-0.2,0-0.2c0,0,0,0,0,0c0,0-0.1,0-0.2,0h-0.8c-0.1,0-0.1,0-0.2,0
				c-0.1,0-0.1,0-0.1,0c0,0,0,0,0,0c0,0,0,0.2,0,0.2c0,0,0,0,0,0c0,0,0,0,0,0c0,0,0,0,0-0.1c0,0,0.1-0.1,0.2-0.1l0.3,0V48.3
				L25.7,48.3z"/>
			<path class="st0" d="M29.3,48.2C29.3,48.2,29.3,48.2,29.3,48.2c0.1,0,0.3,0,0.3,0c0.1,0,0.1,0,0.1,0.1c0,0,0,0,0,0.1c0,0,0,0,0,0
				c0,0,0,0,0,0c0,0,0-0.1,0-0.2c0-0.1,0-0.1,0-0.1c0,0,0,0,0,0c0,0,0,0,0,0c0,0,0,0-0.1,0c0,0-0.1,0-0.1,0l-0.3,0c0,0,0,0,0,0v-0.5
				c0,0,0,0,0,0l0.3,0c0.1,0,0.1,0,0.1,0.1c0,0,0,0.1,0,0.1c0,0,0,0,0,0c0,0,0,0,0,0c0,0,0-0.1,0-0.2c0-0.1,0-0.1,0-0.1c0,0,0,0,0,0
				c0,0,0,0,0,0c0,0,0,0-0.1,0c0,0-0.5,0-0.5,0c-0.1,0-0.2,0-0.3,0c0,0,0,0,0,0c0,0,0,0,0,0c0,0,0.1,0,0.1,0c0.1,0,0.1,0,0.1,0.1
				c0,0.1,0,0.1,0,0.4v0.4c0,0.2,0,0.4,0,0.4c0,0.1,0,0.1-0.1,0.1c0,0,0,0-0.1,0c0,0,0,0,0,0c0,0,0,0,0,0c0.1,0,0.2,0,0.3,0
				c0.1,0,0.2,0,0.3,0c0,0,0,0,0,0c0,0,0,0,0,0c0,0-0.1,0-0.1,0c-0.1,0-0.1-0.1-0.1-0.1c0-0.1,0-0.2,0-0.4V48.2L29.3,48.2z"/>
			<path class="st0" d="M30.6,48.3c0,0.2,0,0.4,0,0.5c0,0.1,0,0.1-0.1,0.1c0,0,0,0-0.1,0c0,0,0,0,0,0c0,0,0,0,0,0c0.1,0,0.2,0,0.3,0
				c0.1,0,0.2,0,0.3,0c0,0,0,0,0,0c0,0,0,0,0,0c0,0-0.1,0-0.1,0c-0.1,0-0.1,0-0.1-0.1c0-0.1,0-0.3,0-0.5V48c0-0.3,0-0.4,0-0.4
				c0-0.1,0-0.1,0.1-0.1c0,0,0,0,0.1,0c0,0,0,0,0,0c0,0,0,0,0,0c-0.1,0-0.2,0-0.3,0c-0.1,0-0.2,0-0.3,0c0,0-0.1,0-0.1,0c0,0,0,0,0,0
				c0,0,0.1,0,0.1,0c0,0,0.1,0,0.1,0.1c0,0.1,0,0.1,0,0.4V48.3L30.6,48.3z"/>
			<path class="st0" d="M31.9,48.3c0,0.2,0,0.4,0,0.4c0,0.1,0,0.1-0.1,0.1c0,0,0,0-0.1,0c0,0,0,0,0,0c0,0,0,0,0,0c0.1,0,0.2,0,0.3,0
				c0.1,0,0.3,0,0.4,0c0.4,0,0.6-0.1,0.7-0.2c0.1-0.1,0.2-0.3,0.2-0.6c0-0.2-0.1-0.4-0.2-0.5c-0.2-0.2-0.6-0.2-0.8-0.2
				c-0.1,0-0.3,0-0.3,0c-0.1,0-0.2,0-0.3,0c0,0,0,0,0,0c0,0,0,0,0,0c0,0,0.1,0,0.1,0c0.1,0,0.1,0,0.1,0.1c0,0.1,0,0.1,0,0.4V48.3
				L31.9,48.3z M32.2,47.9c0-0.2,0-0.3,0-0.4c0,0,0,0,0,0c0,0,0.1,0,0.1,0c0.2,0,0.4,0,0.6,0.2c0.1,0.1,0.2,0.3,0.2,0.5
				c0,0.2,0,0.4-0.2,0.5c-0.1,0.1-0.3,0.1-0.5,0.1c-0.2,0-0.2,0-0.3-0.1c0,0,0-0.1,0-0.2c0,0,0-0.2,0-0.4V47.9L32.2,47.9z"/>
			<path class="st0" d="M34.1,48.3c0,0.2,0,0.4,0,0.4c0,0.1,0,0.1-0.1,0.1c0,0,0,0-0.1,0c0,0,0,0,0,0c0,0,0,0,0,0c0.1,0,0.2,0,0.3,0
				c0.1,0,0.3,0,0.6,0c0.1,0,0.1,0,0.1-0.1c0,0,0-0.2,0-0.2c0,0,0,0,0,0c0,0,0,0,0,0c0,0.1,0,0.1-0.1,0.2c-0.1,0-0.1,0-0.2,0
				c-0.2,0-0.2,0-0.3-0.2c0-0.1,0-0.3,0-0.3v-0.2c0,0,0,0,0,0c0,0,0.3,0,0.3,0c0.1,0,0.1,0,0.1,0.1c0,0,0,0.1,0,0.1c0,0,0,0,0,0
				c0,0,0,0,0,0c0,0,0-0.1,0-0.1c0-0.1,0-0.1,0-0.2c0,0,0,0,0,0c0,0,0,0,0,0c0,0-0.1,0-0.1,0c0,0-0.3,0-0.3,0c0,0,0,0,0,0v-0.5
				c0,0,0,0,0,0c0,0,0.3,0,0.3,0c0.1,0,0.1,0,0.1,0.1c0,0,0,0.1,0,0.1c0,0,0,0,0,0c0,0,0,0,0,0c0,0,0-0.1,0-0.1c0-0.1,0-0.1,0-0.1
				c0,0,0,0,0,0c0,0,0,0,0,0c0,0,0,0-0.1,0c0,0-0.5,0-0.5,0c-0.1,0-0.2,0-0.3,0c0,0,0,0,0,0c0,0,0,0,0,0c0,0,0.1,0,0.1,0
				c0.1,0,0.1,0,0.1,0.1c0,0.1,0,0.1,0,0.4V48.3L34.1,48.3z"/>
			<path class="st0" d="M36,48c0-0.3,0-0.4,0-0.4c0-0.1,0-0.1,0.1-0.1c0,0,0.1,0,0.1,0c0,0,0,0,0,0c0,0,0,0,0,0c-0.1,0-0.2,0-0.3,0
				c-0.1,0-0.2,0-0.3,0c0,0,0,0,0,0c0,0,0,0,0,0c0,0,0.1,0,0.1,0c0.1,0,0.1,0,0.1,0.1c0,0.1,0,0.1,0,0.4v0.4c0,0.2,0,0.4,0,0.4
				c0,0.1,0,0.1-0.1,0.1c0,0,0,0-0.1,0c0,0,0,0,0,0c0,0,0,0,0,0c0.1,0,0.2,0,0.3,0c0.2,0,0.3,0,0.6,0c0.1,0,0.1,0,0.1-0.1
				c0-0.1,0-0.2,0-0.2c0,0,0,0,0,0c0,0,0,0,0,0c0,0,0,0.1-0.1,0.1c-0.1,0.1-0.1,0.1-0.2,0.1c-0.2,0-0.2,0-0.2,0c0,0,0-0.2,0-0.5V48
				L36,48z"/>
			<path class="st0" d="M37.3,48.3c0,0.2,0,0.4,0,0.5c0,0.1,0,0.1-0.1,0.1c0,0,0,0-0.1,0c0,0,0,0,0,0c0,0,0,0,0,0c0.1,0,0.2,0,0.3,0
				c0.1,0,0.2,0,0.3,0c0,0,0,0,0,0c0,0,0,0,0,0c0,0-0.1,0-0.1,0c-0.1,0-0.1,0-0.1-0.1c0-0.1,0-0.3,0-0.5V48c0-0.3,0-0.4,0-0.4
				c0-0.1,0-0.1,0.1-0.1c0,0,0,0,0.1,0c0,0,0,0,0,0c0,0,0,0,0,0c-0.1,0-0.2,0-0.3,0c-0.1,0-0.2,0-0.3,0c0,0,0,0,0,0c0,0,0,0,0,0
				c0,0,0.1,0,0.1,0c0,0,0.1,0,0.1,0.1c0,0.1,0,0.1,0,0.4V48.3L37.3,48.3z"/>
			<path class="st0" d="M38.7,49c0.1,0,0.2,0,0.3-0.1c0.2-0.1,0.2-0.2,0.2-0.4c0-0.2-0.1-0.3-0.3-0.5l-0.1,0
				c-0.2-0.1-0.2-0.2-0.2-0.3c0-0.1,0.1-0.2,0.2-0.2c0.1,0,0.2,0.1,0.2,0.1c0,0.1,0.1,0.1,0.1,0.1c0,0,0,0,0,0c0,0,0,0,0-0.1
				c0-0.2,0-0.2,0-0.3c0,0,0,0,0,0c-0.1,0-0.1,0-0.3,0c-0.3,0-0.5,0.2-0.5,0.4c0,0.2,0.1,0.3,0.3,0.5l0.1,0.1
				c0.2,0.1,0.2,0.2,0.2,0.3C39,48.7,38.9,48.9,38.7,49c-0.1-0.1-0.2-0.2-0.3-0.3c0,0,0-0.1,0-0.1c0,0,0,0,0,0c0,0,0,0,0,0.1
				c0,0,0,0.2,0,0.3c0,0,0,0.1,0,0.1C38.5,49,38.6,49,38.7,49L38.7,49z"/>
			<path class="st0" d="M32.5,6.1c0-0.3-0.6-0.5-0.7-0.6c-0.2,0-0.5,0.5-0.9,0.8c-0.3-1.5-0.1-2.1,0-2.8c0.6,1.1,1.5,1.4,1.9,1.3
				c-1.5-1.2-1.3-2.3-1.7-2.4c-0.3,0-0.5,0-0.6,0c-0.5,0-0.6,1-0.7,1.5c-0.3-0.6-0.7-1.2-1.3-1.9c-0.6-1.4-1.2-1.1-1.9-1.7
				c0.5,0.8,0.1,1.3,1.4,1.9c0.3,0.3,0.7,0.8,1,1.2c-0.2,0.3-0.4,0.4-0.6,0.6c-0.2,0.2-0.2,1.1-0.7,1.8c0.7-0.3,1-0.8,1.3-1.2
				c2.3,1.7,0.4,6.1-0.1,7.1c-0.5-0.3-1.1-0.5-1.7-0.6L27.1,11l-0.5-1.7h0.2c0.3,0,0.4-0.2,0.3-0.3l1.6,0.5l0.7,0.2L28.9,9l-0.7-1
				l0.7-1l0.4-0.6l-0.7,0.2l-1.4,0.4c-0.1-0.3-0.4-0.5-0.6-0.5L27.1,5l0.2-0.7l-0.6,0.4l-1,0.7l-1-0.7l-0.6-0.4L24.3,5l0.5,1.6
				c-0.3,0-0.6,0.2-0.6,0.5l-1.4-0.4l-0.7-0.2L22.5,7l0.7,1l-0.7,1l-0.4,0.6l0.7-0.2l1.6-0.5c0,0.2,0,0.3,0.3,0.3h0.2L24.3,11
				l-0.1,0.2c-0.6,0.1-1.3,0.3-1.8,0.7c-1.5-3-1.1-6,0.2-7c0,0.6,0.5,1.5,0.8,1.7c-0.2-0.7,0.1-1.8-0.2-2.1c-0.2-0.2-0.6-0.3-1-0.3
				c0.3-0.4,0.6-1,1.2-1.8c0.9-0.4,1.2-1.5,1.4-2c-1,0.4-1.7,0.9-1.9,1.7c-0.3,0.5-0.7,1-1.2,1.6c0-0.8-0.4-1-1-1.1
				C19.3,3,19.4,4.2,18,5c1,0.3,2.5-1.8,3-1.5c0.1,1.3-0.2,2.3-0.2,3C20.5,6.2,20.4,6,20.2,6c-0.2,0-0.8,0-1.1,0.4
				c-0.1,0.7-0.1,1.9-0.7,3.4c0.9-0.8,1.4-2.5,1.5-3c0.2,0.3,0.5,1,0.5,1.6c0.1,1.2,0.8,3.2,1.5,4.1c-0.2,0.3-0.2,0.7-0.2,1.1
				c-0.5,0.4-0.5,0.9-0.4,1.2c0.2,0.4,0.7,0.6,1.2,0.4l0.2-0.1c0.6-0.2,1.7-0.7,3-0.7c1.3,0,2.4,0.5,3,0.7l0.2,0.1
				c0.6,0.2,1,0,1.2-0.4c0.2-0.3,0.1-0.8-0.4-1.2c0.1-0.4,0-0.8-0.2-1.2l0,0c1.1-1.6,1.2-4.7,2.1-5.6c0.1,1.1,0.7,2,1.2,2.1
				C32.4,8.3,32.4,6.8,32.5,6.1L32.5,6.1z M27.3,7.6l0.8-0.3l-0.4,0.6L27.6,8l0.1,0.1l0.4,0.6l-1.1-0.3C27.2,8.2,27.3,7.9,27.3,7.6
				L27.3,7.6z M23.3,8.7l0.4-0.6L23.8,8l-0.1-0.1l-0.4-0.6l0.8,0.3c0,0.4,0.1,0.6,0.2,0.8L23.3,8.7L23.3,8.7z M26.6,8.5H26L26,7.3
				C27,6.8,26.9,7.8,26.6,8.5L26.6,8.5z M26.4,10.4L25.9,10l-0.1-0.1L25.6,10L25,10.4l0.4-1.2h0.7L26.4,10.4L26.4,10.4z M25.6,5.9
				L25.7,6l0.1-0.1l0.6-0.4l-0.3,1.1c0,0,0,0,0,0c-0.1-0.1-0.2-0.2-0.4-0.2c-0.2,0-0.3,0.1-0.4,0.2c0,0,0,0,0,0L25,5.5L25.6,5.9
				L25.6,5.9z M24.8,8.5c-0.3-0.7-0.4-1.6,0.6-1.2l0.1,1.2H24.8L24.8,8.5z M25.7,10.5l0.8,0.6c-0.3,0-0.6,0-0.8,0
				c-0.2,0-0.4,0-0.8,0L25.7,10.5L25.7,10.5z M22.5,14.6l-0.2,0.1c-0.2,0.1-0.4,0-0.4-0.1c-0.1-0.1,0-0.3,0.3-0.5c0,0,0.1,0,0.1-0.1
				l0.6,0.5C22.7,14.5,22.6,14.6,22.5,14.6L22.5,14.6z M24.4,14l-0.6-0.6c0.5-0.1,1-0.2,1.5-0.2l0.3,0.7
				C25.2,13.9,24.8,13.9,24.4,14L24.4,14z M27.6,14.1l-0.3-0.8c0.5,0.1,1,0.2,1.4,0.4l0.2,0.8C28.5,14.5,28.1,14.3,27.6,14.1
				L27.6,14.1z M25.7,12.6c-1.1,0-2.3,0.3-3.3,0.7c0-0.2,0.1-0.4,0.2-0.6c0.6-0.7,2-0.9,3-0.9c1.1,0,2.5,0.2,3,0.9
				c0.1,0.2,0.2,0.3,0.2,0.6C28,12.9,26.8,12.6,25.7,12.6L25.7,12.6z"/>
			<g>
				<path class="st0" d="M18.2,31.2c-0.4,0-0.7,0-0.7,0c-0.1,1.2-0.1,2.3,0.1,3.3c0.4-0.7,0.9-1.4,0.8-1.9
					C18.4,32.1,18.3,31.6,18.2,31.2z"/>
				<path class="st0" d="M18.5,31.2c0.1,0.4,0.2,0.9,0.2,1.4c0,0.6-0.4,1.3-0.9,2.1c-0.1,0.1-0.1,0.2-0.2,0.3
					c1.3,6.6,7.7,8.8,7.7,8.8V31.2C25.4,31.2,20.6,31.2,18.5,31.2z M23.3,39c-0.3,0.1-0.8,0.1-1.2,0.1c-0.3,0-0.8,0-1.2-0.1
					c0-0.1,0.1-0.3,0.1-0.5c-0.2,0-0.5-0.1-0.7-0.2c0.1-0.3,0.3-0.7,0.4-1.1c0.4,0.1,0.8,0.1,1.3,0.1c0.5,0,0.9,0,1.3-0.1
					c0.1,0.5,0.3,0.8,0.4,1.1c-0.2,0.1-0.4,0.2-0.7,0.2C23.2,38.7,23.3,38.9,23.3,39z M20.7,36.3c0.2-0.1,1.2-0.1,1.5-0.1
					c0.3,0,1.2,0,1.5,0.1c0,0.1,0,0.3,0,0.4c-0.4,0.1-1,0.2-1.5,0.2c-0.5,0-1.1-0.1-1.5-0.2C20.7,36.6,20.7,36.4,20.7,36.3z
					 M24.2,33.8c-0.4,0.8-0.7,1.7-0.8,2c-0.2,0-0.4,0-0.6-0.1c0.2-0.7,0.5-1.8,0.8-2.5C23.8,32.8,24.6,33,24.2,33.8z M22.1,32.5
					c0.1-0.4,1.2-0.5,1,0.4c-0.2,0.9-0.5,1.9-0.7,2.8c-0.1,0-0.2,0-0.3,0c-0.1,0-0.2,0-0.3,0c-0.2-0.9-0.5-1.9-0.7-2.8
					C21,32.1,22.1,32.2,22.1,32.5z M20.7,33.3c0.2,0.7,0.5,1.7,0.8,2.5c-0.2,0-0.4,0-0.6,0.1c-0.1-0.3-0.5-1.1-0.8-2
					C19.7,33,20.5,32.8,20.7,33.3z"/>
				<path class="st0" d="M32.4,32.4l0-0.3l0.3,0c0.4,0,0.6-0.4,0.7-0.9c-1.6,0-7.5,0-7.5,0v6c0.5-0.4,1-0.7,1.6-0.9v-1v-0.3h0.3h0.3
					c0-1.5,0.4-2.5,1.1-3.2l0.2-0.2l0.2,0.2c0.7,0.7,1,1.8,1.1,3.2H31h0.3v0.3v1.1c0.7,0.3,1.1,0.7,1.5,1.2c0.6-1.1,1-2.4,1.1-3.9
					c0,0-0.1,0-0.1,0C33.2,33.7,32.5,33.3,32.4,32.4z"/>
				<path class="st0" d="M33.9,31.2c0,0,0,0-0.1,0c-0.1,0.7-0.5,1.2-1,1.2c0,0.7,0.6,1,1.1,1c0,0,0.1,0,0.1,0
					C34,32.7,34,32,33.9,31.2z"/>
				<path class="st0" d="M29.4,36.7c-1.8,0-2.5,0.5-3.4,1.2v5.8c0,0,4.2-1.5,6.5-5.5C32,37.4,31.2,36.7,29.4,36.7z M30.9,39
					l-0.5-0.6l-0.9,0.8l0.4,0.4c0,0,0.4-0.2,0.7,0.2c-0.3,0.2-0.7,0.6-1,0.8c-0.3-0.4-0.1-0.7-0.1-0.7l-0.4-0.4l-1.1,1l-0.4-0.4
					l1.1-1l-0.4-0.5c0,0-0.2,0.1-0.4,0.3c-0.3-0.4-0.6-0.9-0.3-1.5c0.6-0.1,1.1,0.2,1.4,0.5c-0.2,0.2-0.4,0.3-0.4,0.3l0.4,0.5
					l0.9-0.8l-0.5-0.6c0.5-0.1,0.9,0.1,1.1,0.4C30.9,38.1,31,38.6,30.9,39z"/>
				<path class="st0" d="M17.8,28.1c0.4,0.4,0.6,0.6,0.5,1.9c0,0.2,0.1,0.4,0.2,0.8h15.2c0-0.2,0-0.3,0-0.5c0-0.7-0.1-1.2-0.3-1.4
					c-0.1-0.1-0.2-0.1-0.3-0.1c0,0,0,0,0,0l-0.6,0.1l0.3-0.5c0.3-0.5,0.8-0.8,1.3-0.8v-4.5H17.5v5C17.6,28,17.7,28,17.8,28.1
					L17.8,28.1z M27.4,27.5v-0.3l-0.7,0c0.2-0.8,1.7-1.8,2.4-2c0-0.9,1.1-1.1,2-1.2c1.1,0,1.4,1.2,1.4,1.5c0,0.5-0.1,1.6-0.7,1.9
					c-0.9,0.5-1.7-0.2-1.7-0.8c0-0.7,0.5-1.1,1.3-1c0.8,0.1,0.7-0.4,0.1-0.5c-0.3-0.1-1.6-0.1-2,0.8c-0.2,0-0.5-0.1-0.7-0.2
					c-0.2,0.2-0.4,0.4-0.8,0.5c0.3,0.6,0.9,0.5,1.3,0.2c0,0.1,0,0.2,0,0.3c0,1.6,1.7,2,2.7,1.4c-0.2,0.5-0.1,1.1,0,1.6
					c0,0-3.5,0-4,0c0.1-0.4,0.6-0.9,1.1-1.2l-0.4-0.6c-0.4,0.2-0.8,0.4-1.3,0.5C26.2,28.6,26.2,27.8,27.4,27.5z M24.6,28.7
					c-0.2,0.2-1.1,0.5-1.3,0.4c-0.4-0.2-0.6-0.8-0.5-1c0.1-0.3,1.2-0.6,1.5-0.5C24.5,27.8,24.7,28.5,24.6,28.7z M19,26.3
					c0.9-0.5,1.3-0.9,1.8-1.6c-0.3-0.2-0.8-0.5-1.1-0.9c1.7,0.5,2.5,0.7,4.5,0c-0.3,0.5-0.8,0.8-1.2,1.1c0.5,0.7,0.9,1.6,1.1,2.3
					c-0.6,0-1.3,0.1-1.8,0.5c-0.7,0-1.7,0.3-2.2-1.4c-0.3,0.1-0.5,0.3-0.5,0.3c0.3,1.1,0.9,1.9,2.3,1.7c0.1,0.4,0.1,0.6,0.3,0.8
					c-0.6,0.4-2.1,1.3-3.3,0.2C19,28.2,19,26.3,19,26.3z"/>
				<path class="st0" d="M17.5,28.3v2.4h0.5c-0.1-0.3-0.2-0.6-0.1-0.8C18.1,28.7,17.9,28.6,17.5,28.3z"/>
				<path class="st0" d="M33.9,30.7v-3c-0.3,0-0.7,0.3-1,0.7c0,0,0.1,0,0.1,0c0.7,0,0.9,0.9,0.9,1.9C33.9,30.4,33.9,30.6,33.9,30.7
					L33.9,30.7z"/>
				<path class="st0" d="M21.5,26.6c0.3,0.1,0.6,0,1,0c-0.1-0.2-0.1-0.3-0.1-0.5c0.1-0.4-0.3-0.6-0.4-0.5c-0.4,0-0.6,0.1-1.1,0
					C21.2,25.9,21.1,26.4,21.5,26.6z"/>
			</g>
			<path class="st0" d="M18,29.9c0.1-1.3-0.1-1.4-0.4-1.7c-0.3-0.3-0.8-0.3-1.3-0.7c-0.4-0.3-0.5-0.6-0.9-1.1
				c0.1-1.1,0.9-2.4,1.4-2.6c0.1,0,0.1-1.7,0.1-1.7s0.4,0,0.3,0c-0.5-0.3-1.1-0.1-1.5,0.4c-0.4,0.3-1.4,1-2.1,1.2
				c-0.9-0.8-2.3-1.4-3.3-2.5c0,0,1.4,0,2-0.3c0.2-0.1,0.6-0.8,0.4-1.5c-0.2-0.1-0.5-0.2-0.8-0.4c-0.4-0.2-0.7-0.4-0.9-0.6
				c-0.6-0.4-0.8-0.8-1.9-1.1C9,17,9.1,17.1,9.6,16.8c0.6-0.4,0.9-0.9,1.1-1.3c0.2-0.4,0-1.1-0.5-0.2c-0.2,0.3-0.6,0.8-1.1,0.9
				c0-0.3,0.1-0.5,0.1-0.6c1.5-1.1,1.4-2,1.2-2.9c-0.1-0.5-0.6-0.7-0.5-0.2c0,0.3,0.3,1.3-0.7,1.9c0-0.4-0.1-0.6-0.2-0.9
				c0.9-1.2,0.5-2.4,0.1-2.9c-0.2-0.3-0.8-0.5-0.6,0.1c0.2,0.4,0.6,1.6-0.1,2.1c-0.2-0.3-0.5-0.4-0.6-0.8c0.1-1.3,0-2.1-0.2-2.6
				C7.5,9.1,7,8.8,7.1,9.5c0,0.7,0.1,1.6,0,1.7c-0.1,0.1-1-0.8-1.4-1.1c-0.4-0.3-0.9-0.2-0.4,0.4c0.4,0.5,1.6,1.4,1.5,1.7
				c-0.1,0.2-1-0.5-1.4-0.7c-0.5-0.2-0.6,0.1-0.2,0.4c0.6,0.5,1,0.9,2.1,1.2c1,0.3,1.6,1.8,1.2,3.8c0,0.1-0.2,0.1-0.3,0
				c0-0.8-0.2-1.7-0.4-2.1c-0.2-0.5-0.7-0.6-0.6,0.2c0.1,0.6,0.2,1.2,0.1,2c-0.9-0.1-1.2-0.4-1.5-0.6c0-0.4,0.2-1,0.2-1.6
				c0-0.6-0.3-0.9-0.5-0.2c-0.2,0.7-0.3,1-0.4,1.5c-0.2-0.1-0.5-0.2-0.6-0.3c-0.1-0.1,0-0.8-0.1-1.4c-0.1-0.6-0.3-0.6-0.5-0.1
				c-0.1,0.3-0.2,0.6-0.2,1c-0.3-0.2-0.5-0.5-0.5-0.8c0-0.7,0.2-1.4,0.2-1.8c0.1-0.3-0.2-1-0.4-0.2c-0.2,0.6-0.2,1-0.3,1.4
				c-0.2,0-0.5-1.3-0.7-2.1c-0.1-0.4-0.4-0.8-0.4,0c-0.1,0.9,0.1,1.8,0.4,2.2c-0.4,0-0.9-0.8-1.2-1.3c-0.3-0.4-0.4,0-0.4,0.2
				c0.3,1.6,1.5,2.2,2.1,2.3c0.9,1.3,2.6,1.8,4.1,2.5c-1.9,0-2.4,0.7-3.2,0.2c0,0.7,0.4,1,0.7,1.2c0.2,0.1,0.5,0.1,0.6,0.2
				c0.2,0.9,1,0.8,1.7,0.9c-0.2,1.7,0,3.9,1.5,5.6c0,0.9-0.1,2-0.1,2.7c-1.2,1.1-2.3,3.5-2.7,4.8c-0.3,1-0.8,1.7-1.5,2.1
				c0.6,0.6,1.5,0.3,2,0c0,0.6,0.2,1,0.3,1.3c-0.3,0.5-0.6,0.9-0.6,1.5c-0.4,0.1-0.7,0.3-0.9,0.6c-0.1,0.2,0,0.9,0.2,1.3
				c0.5,1.1,0.1,3.5,0,4.3c0.2,0,0.6,0,0.7-0.3c0.1,0.1,0.4,0.3,0.6,0.8c0,0.2-0.1,1,0.2,1c0.3,0.1,1.7,0,1.9-0.2
				c-0.1-0.2-0.4-0.5-0.5-0.9c0-0.4,0-0.8-0.1-1c-0.2-0.3-0.6-0.9-0.8-1.1c-0.1-0.5-0.1-2.4,0.1-3.2c0.4-0.2,2.7-2,3.2-3.7
				c0.4,0.1,0.3,1.3,0.3,2.9c0,0.4,0.5,0.6,0.8,0.7c0.6,0.1,1.6,0.7,2.6,2.2c0.2-0.2,0.5-0.4,0.5-0.4c0.1,0.2,0.3,0.6,0.4,0.9
				c0.1,0.2,0.9,0.3,1.6,0.1c0.2-0.1,0.3-0.1,0.5-0.3c-0.8-1.4-1.3-2.4-2.3-3.1c-0.5-0.4-1.1-0.5-1.7-0.9c0.4-0.7,1.4-3.8,0.8-5
				c-0.2-0.4-1-0.8-1.9-0.6c0.8-0.9,2.3-2.7,2.5-3.3c0.2,0.2,1.1,0.1,1.8,0.3c0.3,0.1,0.9,1,1,1.3c0.1,0.6,0.1,1.2-0.3,2.8
				c0.3,0,0.2-0.1,0.5-0.2c0,0.4-0.1,0.7-0.4,1.3c0.1,0.6,0.3,1.4,0.6,1.6c0.3-1,1.6-2.5,1.6-3.4C18.4,31.4,17.9,30.4,18,29.9
				L18,29.9z"/>
		</g>
	</g>
	<g>
		<g>
			<path class="st0" d="M72.2,37.1c0,0-0.4,0.3-1.4,0.3c-1.2,0-2.3-0.7-2.8-1.1c-0.7-0.5-1.9-1.2-3.1-1.6c-2.3,0-3.8-0.6-5-2.2
				c-1.2-1.5-1.8-3.5-1.8-5.7c0-3.3,1.3-6,3.5-7.2c0.9-0.5,2-0.8,3.2-0.8c4.1,0,6.6,3,6.6,7.8c0,3.4-1.2,5.9-3,7.1
				c0.4,0.2,1,0.6,1.4,0.8c0.6,0.3,1.2,0.6,1.9,0.6c0.7,0,1.4-0.1,1.4-0.1L72.2,37.1z M67.5,23.2c-0.2-0.8-1.1-2-2.7-2
				c-1,0-2,0.5-2.4,1.4c-0.5,1-0.8,2.4-0.8,4.2c0,2.7,0.4,4.3,1.4,5c0.5,0.4,1.1,0.5,1.8,0.5c2.2,0,3.1-1.6,3.1-5.6
				C67.9,25.2,67.7,24.1,67.5,23.2z"/>
			<path class="st0" d="M81.5,34.8c-0.4-0.3-0.7-0.6-0.9-1.1c-0.7,0.7-1.8,1.1-3,1.1c-1.6,0-3-0.8-3.4-1.8c-0.2-0.5-0.2-1.1-0.2-2.3
				v-7.3l2.9-0.6v7.3c0,1,0.1,1.6,0.2,1.9c0.2,0.3,0.6,0.5,1,0.5c0.7,0,1.6-0.5,1.8-1.1v-8l2.8-0.6v8.7c0,0.8,0.2,1.5,0.7,2.1
				L81.5,34.8z"/>
			<path class="st0" d="M88.9,29.8L88.9,29.8c0,1.8,0.9,2.8,2.4,2.8c1,0,2-0.4,2.9-1.1l1.2,1.8c-1.3,1.1-2.7,1.6-4.3,1.6
				c-3.3,0-5.4-2.3-5.4-5.9c0-2,0.4-3.4,1.4-4.5c0.9-1,2.1-1.5,3.6-1.5c1.3,0,2.6,0.4,3.3,1.2c1,1.1,1.5,2.6,1.5,5v0.7H88.9z
				 M92.3,27.5c0-0.8-0.1-1.3-0.4-1.7c-0.3-0.4-0.7-0.7-1.3-0.7c-1.1,0-1.8,0.9-1.8,2.5v0h3.4V27.5z"/>
			<path class="st0" d="M100.4,29.8L100.4,29.8c0,1.8,0.9,2.8,2.4,2.8c1,0,2-0.4,2.9-1.1l1.2,1.8c-1.3,1.1-2.7,1.6-4.3,1.6
				c-3.3,0-5.4-2.3-5.4-5.9c0-2,0.4-3.4,1.4-4.5c0.9-1,2.1-1.5,3.6-1.5c1.3,0,2.6,0.4,3.3,1.2c1,1.1,1.5,2.6,1.5,5v0.7H100.4z
				 M103.8,27.5c0-0.8-0.1-1.3-0.4-1.7c-0.3-0.4-0.7-0.7-1.3-0.7c-1.1,0-1.8,0.9-1.8,2.5v0h3.4V27.5z"/>
			<path class="st0" d="M115.3,34.5v-7.4c0-1.3-0.2-1.7-1-1.7c-0.6,0-1.4,0.4-2.1,1v8h-3v-8.2c0-1-0.1-1.9-0.4-2.7l2.6-0.8
				c0.3,0.5,0.4,1,0.4,1.4c0.4-0.3,0.8-0.6,1.3-0.8c0.6-0.3,1.4-0.5,2-0.5c1.3,0,2.4,0.7,2.7,1.6c0.2,0.4,0.2,0.9,0.2,1.6v8.3H115.3
				z"/>
			<path class="st0" d="M125,34.9c-1.4,0-2.9-0.4-4.6-1.3l1.1-2.2c0.9,0.6,2.5,1.3,3.8,1.3c0.8,0,1.5-0.6,1.5-1.3
				c0-0.8-0.6-1.2-1.8-1.4l-1.3-0.2c-0.8-0.1-1.7-0.7-2.1-1.2c-0.4-0.5-0.6-1.3-0.6-2c0-2.2,1.8-3.7,4.4-3.7c1.8,0,3,0.6,4.1,1.1
				l-1,2c-1.1-0.6-2-0.8-2.8-0.8c-0.9,0-1.4,0.4-1.4,1.1c0,0.6,0.4,0.9,1.4,1.2l1.4,0.4c1.4,0.4,1.9,0.8,2.3,1.3
				c0.4,0.5,0.6,1.2,0.6,1.9C129.9,33.3,127.9,34.9,125,34.9z"/>
			<path class="st0" d="M135.2,34.8c-1.3,0-2.3-0.6-2.6-1.6c-0.2-0.6-0.3-0.9-0.3-2.6v-8.5c0-1.5,0-2.4-0.2-3.4l3-0.7
				c0.1,0.6,0.2,1.4,0.2,3v8.9c0,2,0,2.2,0.2,2.5c0.1,0.2,0.4,0.3,0.6,0.3c0.1,0,0.2,0,0.3,0l0.5,1.8
				C136.4,34.7,135.8,34.8,135.2,34.8z"/>
			<path class="st0" d="M146.4,35.1c-0.7-0.3-1.3-0.8-1.6-1.4c-0.2,0.2-0.5,0.4-0.7,0.6c-0.6,0.4-1.4,0.6-2.3,0.6
				c-2.5,0-3.9-1.3-3.9-3.6c0-2.7,1.8-3.9,5.5-3.9c0.2,0,0.4,0,0.7,0V27c0-1.3-0.2-1.7-1.3-1.7c-1,0-2.1,0.5-3.3,1.3l-1.3-2.1
				c0.6-0.4,1-0.6,1.8-0.9c1.1-0.5,2.1-0.7,3.1-0.7c1.9,0,3.2,0.7,3.7,2c0.2,0.5,0.2,0.8,0.2,2l-0.1,3.8c0,1.2,0.1,1.8,1.1,2.5
				L146.4,35.1z M143.8,29.6c-2.1,0-2.8,0.4-2.8,1.7c0,0.9,0.6,1.5,1.3,1.5c0.6,0,1.1-0.3,1.6-0.8l0-2.4H143.8z"/>
			<path class="st0" d="M156.3,34.5v-7.4c0-1.3-0.2-1.7-1-1.7c-0.6,0-1.4,0.4-2.1,1v8h-3v-8.2c0-1-0.1-1.9-0.4-2.7l2.6-0.8
				c0.3,0.5,0.4,1,0.4,1.4c0.4-0.3,0.8-0.6,1.3-0.8c0.6-0.3,1.4-0.5,2-0.5c1.3,0,2.4,0.7,2.7,1.6c0.2,0.4,0.2,0.9,0.2,1.6v8.3H156.3
				z"/>
			<path class="st0" d="M169.5,34.5c-0.1-0.2-0.1-0.4-0.2-0.7c-0.7,0.6-1.6,1-2.6,1c-2.9,0-4.7-2.2-4.7-5.8c0-3.6,2-6,4.9-6
				c0.8,0,1.5,0.2,2,0.6c0-0.2-0.1-1-0.1-1.7v-3.9l3,0.5v11.8c0,2.8,0.2,3.7,0.4,4.2H169.5z M168.8,26.2c-0.6-0.5-1.1-0.7-1.6-0.7
				c-1.3,0-1.9,1.1-1.9,3.6c0,2.4,0.5,3.2,2.1,3.2c0.6,0,1.2-0.4,1.5-0.7V26.2z"/>
			<path class="st0" d="M185.7,34.8c-1.9,0-3.5-0.7-4.7-1.9c-1.3-1.4-1.9-3.3-1.9-5.9c0-2.9,0.8-5,2.4-6.4c1.1-1,2.4-1.4,4-1.4
				c1.6,0,3,0.5,4.2,1.5l-0.8,1.1c-1.2-0.8-2.1-1.2-3.3-1.2c-1.8,0-3.2,0.8-3.8,2.6c-0.4,1.1-0.6,2.4-0.6,3.9c0,2,0.4,3.6,1.1,4.6
				c0.7,1,2.2,1.6,3.7,1.6c1,0,1.8-0.2,2.4-0.6V28h-3.1l-0.4-1.5h5.1v7.1C188.9,34.3,187.3,34.8,185.7,34.8z"/>
			<path class="st0" d="M197.2,34.8c-3,0-4.8-2.2-4.8-5.9c0-3.6,1.8-5.8,4.7-5.8c1.8,0,3,0.8,3.8,1.9c0.7,1,1,2.3,1,4.1
				C202,32.9,200,34.8,197.2,34.8z M199.5,26c-0.5-1-1.4-1.4-2.4-1.4c-1,0-1.9,0.5-2.3,1.2c-0.4,0.7-0.5,1.6-0.5,2.9
				c0,1.6,0.3,2.9,0.7,3.6c0.4,0.7,1.3,1.1,2.2,1.1c1.2,0,2-0.6,2.4-1.7c0.2-0.7,0.3-1.3,0.3-2.4C200,27.8,199.8,26.7,199.5,26z"/>
			<path class="st0" d="M208.3,34.6h-1.7l-4-11.1l1.8-0.4l2.6,7.6c0.3,0.9,0.5,1.9,0.5,1.9h0c0,0,0.2-0.9,0.5-1.9l2.5-7.4h1.8
				L208.3,34.6z"/>
			<path class="st0" d="M215.3,29.3v0.3c0,1,0.1,1.8,0.5,2.4c0.6,1,1.6,1.4,2.8,1.4c1.1,0,1.9-0.3,2.7-1l0.7,1.1
				c-1,0.9-2.3,1.4-3.7,1.4c-3.1,0-4.9-2.2-4.9-5.9c0-1.9,0.4-3.1,1.3-4.2c0.9-1,2-1.5,3.3-1.5c1.2,0,2.2,0.4,3,1.2
				c1,1,1.3,2,1.3,4.7v0.2H215.3z M219.9,25.5c-0.4-0.6-1.2-1-2-1c-1.6,0-2.5,1.2-2.6,3.4h5.1C220.4,26.8,220.2,26,219.9,25.5z"/>
			<path class="st0" d="M229.5,25.1c-0.1,0-0.3-0.1-0.5-0.1c-0.7,0-1.3,0.3-1.8,0.8c-0.5,0.5-0.6,0.8-0.6,1.8v6.9h-1.7V26
				c0-1.6-0.4-2.4-0.4-2.4l1.7-0.5c0,0,0.4,0.9,0.4,1.8c0.8-1.1,2-1.8,3.1-1.8c0.3,0,0.6,0.1,0.6,0.1L229.5,25.1z"/>
			<path class="st0" d="M237.6,34.5V27c0-1.2-0.1-1.5-0.4-1.8c-0.2-0.3-0.7-0.5-1.2-0.5c-0.9,0-2.3,0.7-3.1,1.6v8.2h-1.7V26
				c0-1.6-0.4-2.3-0.4-2.3l1.7-0.5c0,0,0.4,0.8,0.4,1.7c1.2-1.2,2.3-1.7,3.5-1.7c1.2,0,2.3,0.6,2.7,1.6c0.2,0.4,0.3,0.8,0.3,1.3v8.4
				H237.6z"/>
			<path class="st0" d="M254.8,34.5v-8.2c0-1.1-0.5-1.6-1.4-1.6c-1,0-1.8,0.6-2.9,1.7v8.1h-1.8v-7.9c0-0.7-0.1-1.1-0.3-1.4
				c-0.3-0.3-0.6-0.4-1.1-0.4c-0.8,0-1.7,0.4-2.8,1.5v8.3h-1.7V26c0-1.6-0.4-2.4-0.4-2.4l1.7-0.4c0,0,0.4,0.9,0.4,1.6
				c0.7-0.8,2.1-1.7,3.2-1.7c1.1,0,2.2,0.7,2.6,1.8c1.1-1.1,2.4-1.8,3.6-1.8c1.6,0,2.8,1.2,2.8,3v8.3H254.8z"/>
			<path class="st0" d="M261.4,29.3v0.3c0,1,0.1,1.8,0.5,2.4c0.6,1,1.6,1.4,2.8,1.4c1.1,0,1.9-0.3,2.7-1l0.7,1.1
				c-1,0.9-2.3,1.4-3.7,1.4c-3.1,0-4.9-2.2-4.9-5.9c0-1.9,0.4-3.1,1.3-4.2c0.9-1,2-1.5,3.3-1.5c1.2,0,2.2,0.4,3,1.2
				c1,1,1.3,2,1.3,4.7v0.2H261.4z M265.9,25.5c-0.4-0.6-1.2-1-2-1c-1.6,0-2.5,1.2-2.6,3.4h5.1C266.4,26.8,266.3,26,265.9,25.5z"/>
			<path class="st0" d="M277.2,34.5V27c0-1.2-0.1-1.5-0.4-1.8c-0.2-0.3-0.7-0.5-1.2-0.5c-0.9,0-2.3,0.7-3.1,1.6v8.2h-1.7V26
				c0-1.6-0.4-2.3-0.4-2.3l1.7-0.5c0,0,0.4,0.8,0.4,1.7c1.2-1.2,2.3-1.7,3.5-1.7c1.2,0,2.3,0.6,2.7,1.6c0.2,0.4,0.3,0.8,0.3,1.3v8.4
				H277.2z"/>
			<path class="st0" d="M286.4,24.8h-2.3v7.1c0,1.2,0.3,1.6,1.4,1.6c0.5,0,0.8-0.1,1.1-0.2l0.2,1.1c-0.6,0.3-1.2,0.4-2,0.4
				c-0.6,0-1-0.1-1.4-0.3c-0.8-0.4-1.1-1.1-1.1-2.2v-7.6H281v-1.3h1.4c0-1.1,0.2-2.8,0.2-2.8l1.8-0.4c0,0-0.2,1.7-0.2,3.2h2.8
				L286.4,24.8z"/>
		</g>
	</g>
</g>
</svg>
